<mxfile host="app.diagrams.net" modified="2020-07-24T13:56:48.638Z" agent="5.0 (Windows NT 10.0; Win64; x64) AppleWebKit/537.36 (KHTML, like Gecko) Chrome/78.0.3904.70 Safari/537.36" etag="pmku-ZK1zMkmg8O6QkCB" version="13.4.5" type="github">
  <diagram id="xUYwHQAnJaQRM0SXfUqJ" name="Page-1">
    <mxGraphModel dx="1108" dy="433" grid="1" gridSize="10" guides="1" tooltips="1" connect="1" arrows="1" fold="1" page="1" pageScale="1" pageWidth="827" pageHeight="1169" math="0" shadow="0">
      <root>
        <mxCell id="0" />
        <mxCell id="1" parent="0" />
        <mxCell id="oe-XNxj3-mksXrI5bO-q-1" value="SaleMasterContract" style="html=1;" parent="1" vertex="1">
          <mxGeometry x="70" y="50" width="110" height="50" as="geometry" />
        </mxCell>
        <mxCell id="2" value="SaleContract" style="html=1;" parent="1" vertex="1">
          <mxGeometry x="70" y="210" width="110" height="50" as="geometry" />
        </mxCell>
        <mxCell id="oe-XNxj3-mksXrI5bO-q-5" value="" style="endArrow=open;html=1;endSize=12;startArrow=diamondThin;startSize=14;startFill=0;edgeStyle=orthogonalEdgeStyle;exitX=0.5;exitY=1;exitDx=0;exitDy=0;entryX=0.5;entryY=0;entryDx=0;entryDy=0;" parent="1" source="oe-XNxj3-mksXrI5bO-q-1" target="2" edge="1">
          <mxGeometry relative="1" as="geometry">
            <mxPoint x="180" y="160" as="sourcePoint" />
            <mxPoint x="340" y="160" as="targetPoint" />
          </mxGeometry>
        </mxCell>
        <mxCell id="oe-XNxj3-mksXrI5bO-q-6" value="1" style="edgeLabel;resizable=0;html=1;align=left;verticalAlign=top;" parent="oe-XNxj3-mksXrI5bO-q-5" connectable="0" vertex="1">
          <mxGeometry x="-1" relative="1" as="geometry">
            <mxPoint x="7" as="offset" />
          </mxGeometry>
        </mxCell>
        <mxCell id="oe-XNxj3-mksXrI5bO-q-7" value="*" style="edgeLabel;resizable=0;html=1;align=right;verticalAlign=top;" parent="oe-XNxj3-mksXrI5bO-q-5" connectable="0" vertex="1">
          <mxGeometry x="1" relative="1" as="geometry">
            <mxPoint x="25" y="-20" as="offset" />
          </mxGeometry>
        </mxCell>
        <mxCell id="oe-XNxj3-mksXrI5bO-q-8" value="PaymentTerm" style="html=1;" parent="1" vertex="1">
          <mxGeometry x="290" y="80" width="110" height="50" as="geometry" />
        </mxCell>
        <mxCell id="oe-XNxj3-mksXrI5bO-q-13" value="" style="endArrow=open;html=1;endSize=12;startArrow=diamondThin;startSize=14;startFill=0;edgeStyle=orthogonalEdgeStyle;exitX=0.75;exitY=0;exitDx=0;exitDy=0;entryX=0.055;entryY=0.5;entryDx=0;entryDy=0;entryPerimeter=0;" parent="1" source="2" target="oe-XNxj3-mksXrI5bO-q-8" edge="1">
          <mxGeometry relative="1" as="geometry">
            <mxPoint x="290" y="180" as="sourcePoint" />
            <mxPoint x="300" y="105" as="targetPoint" />
            <Array as="points">
              <mxPoint x="153" y="160" />
              <mxPoint x="220" y="160" />
              <mxPoint x="220" y="105" />
            </Array>
          </mxGeometry>
        </mxCell>
        <mxCell id="oe-XNxj3-mksXrI5bO-q-14" value="*" style="edgeLabel;resizable=0;html=1;align=left;verticalAlign=top;" parent="oe-XNxj3-mksXrI5bO-q-13" connectable="0" vertex="1">
          <mxGeometry x="-1" relative="1" as="geometry">
            <mxPoint x="7" y="-20" as="offset" />
          </mxGeometry>
        </mxCell>
        <mxCell id="oe-XNxj3-mksXrI5bO-q-15" value="1" style="edgeLabel;resizable=0;html=1;align=right;verticalAlign=top;" parent="oe-XNxj3-mksXrI5bO-q-13" connectable="0" vertex="1">
          <mxGeometry x="1" relative="1" as="geometry">
            <mxPoint x="-20" y="-20" as="offset" />
          </mxGeometry>
        </mxCell>
        <mxCell id="oe-XNxj3-mksXrI5bO-q-16" value="User" style="html=1;" parent="1" vertex="1">
          <mxGeometry x="294" y="150" width="110" height="50" as="geometry" />
        </mxCell>
        <mxCell id="oe-XNxj3-mksXrI5bO-q-17" value="" style="endArrow=open;html=1;endSize=12;startArrow=diamondThin;startSize=14;startFill=0;edgeStyle=orthogonalEdgeStyle;exitX=1;exitY=0;exitDx=0;exitDy=0;entryX=0;entryY=0.25;entryDx=0;entryDy=0;" parent="1" source="2" target="oe-XNxj3-mksXrI5bO-q-16" edge="1">
          <mxGeometry relative="1" as="geometry">
            <mxPoint x="173.95" y="325" as="sourcePoint" />
            <mxPoint x="289.99999999999994" y="220" as="targetPoint" />
            <Array as="points">
              <mxPoint x="230" y="210" />
              <mxPoint x="230" y="163" />
            </Array>
          </mxGeometry>
        </mxCell>
        <mxCell id="oe-XNxj3-mksXrI5bO-q-18" value="*" style="edgeLabel;resizable=0;html=1;align=left;verticalAlign=top;" parent="oe-XNxj3-mksXrI5bO-q-17" connectable="0" vertex="1">
          <mxGeometry x="-1" relative="1" as="geometry">
            <mxPoint x="7" as="offset" />
          </mxGeometry>
        </mxCell>
        <mxCell id="oe-XNxj3-mksXrI5bO-q-19" value="1" style="edgeLabel;resizable=0;html=1;align=right;verticalAlign=top;" parent="oe-XNxj3-mksXrI5bO-q-17" connectable="0" vertex="1">
          <mxGeometry x="1" relative="1" as="geometry">
            <mxPoint x="-20" y="-20" as="offset" />
          </mxGeometry>
        </mxCell>
        <mxCell id="oe-XNxj3-mksXrI5bO-q-20" value="ProductGroup" style="html=1;" parent="1" vertex="1">
          <mxGeometry x="293" y="220" width="110" height="50" as="geometry" />
        </mxCell>
        <mxCell id="oe-XNxj3-mksXrI5bO-q-24" value="" style="endArrow=open;html=1;endSize=12;startArrow=diamondThin;startSize=14;startFill=0;edgeStyle=orthogonalEdgeStyle;exitX=1;exitY=0.5;exitDx=0;exitDy=0;entryX=0;entryY=0.5;entryDx=0;entryDy=0;" parent="1" source="2" target="oe-XNxj3-mksXrI5bO-q-20" edge="1">
          <mxGeometry relative="1" as="geometry">
            <mxPoint x="190" y="244.5" as="sourcePoint" />
            <mxPoint x="290" y="244.5" as="targetPoint" />
            <Array as="points">
              <mxPoint x="250" y="235" />
              <mxPoint x="250" y="245" />
            </Array>
          </mxGeometry>
        </mxCell>
        <mxCell id="oe-XNxj3-mksXrI5bO-q-25" value="*" style="edgeLabel;resizable=0;html=1;align=left;verticalAlign=top;" parent="oe-XNxj3-mksXrI5bO-q-24" connectable="0" vertex="1">
          <mxGeometry x="-1" relative="1" as="geometry">
            <mxPoint x="7" as="offset" />
          </mxGeometry>
        </mxCell>
        <mxCell id="oe-XNxj3-mksXrI5bO-q-26" value="1" style="edgeLabel;resizable=0;html=1;align=right;verticalAlign=top;" parent="oe-XNxj3-mksXrI5bO-q-24" connectable="0" vertex="1">
          <mxGeometry x="1" relative="1" as="geometry">
            <mxPoint x="-20" y="-20" as="offset" />
          </mxGeometry>
        </mxCell>
        <mxCell id="oe-XNxj3-mksXrI5bO-q-27" value="ClientGroup" style="html=1;" parent="1" vertex="1">
          <mxGeometry x="294" y="290" width="110" height="50" as="geometry" />
        </mxCell>
        <mxCell id="oe-XNxj3-mksXrI5bO-q-28" value="" style="endArrow=open;html=1;endSize=12;startArrow=diamondThin;startSize=14;startFill=0;edgeStyle=orthogonalEdgeStyle;exitX=1;exitY=1;exitDx=0;exitDy=0;entryX=0;entryY=0.5;entryDx=0;entryDy=0;" parent="1" source="2" target="oe-XNxj3-mksXrI5bO-q-27" edge="1">
          <mxGeometry relative="1" as="geometry">
            <mxPoint x="150" y="310" as="sourcePoint" />
            <mxPoint x="263" y="320" as="targetPoint" />
            <Array as="points">
              <mxPoint x="180" y="310" />
              <mxPoint x="250" y="310" />
              <mxPoint x="250" y="315" />
            </Array>
          </mxGeometry>
        </mxCell>
        <mxCell id="oe-XNxj3-mksXrI5bO-q-29" value="*" style="edgeLabel;resizable=0;html=1;align=left;verticalAlign=top;" parent="oe-XNxj3-mksXrI5bO-q-28" connectable="0" vertex="1">
          <mxGeometry x="-1" relative="1" as="geometry">
            <mxPoint x="7" as="offset" />
          </mxGeometry>
        </mxCell>
        <mxCell id="oe-XNxj3-mksXrI5bO-q-30" value="1" style="edgeLabel;resizable=0;html=1;align=right;verticalAlign=top;" parent="oe-XNxj3-mksXrI5bO-q-28" connectable="0" vertex="1">
          <mxGeometry x="1" relative="1" as="geometry">
            <mxPoint x="-20" y="-20" as="offset" />
          </mxGeometry>
        </mxCell>
        <mxCell id="oe-XNxj3-mksXrI5bO-q-31" value="Broker" style="html=1;" parent="1" vertex="1">
          <mxGeometry x="70" y="350" width="110" height="50" as="geometry" />
        </mxCell>
        <mxCell id="oe-XNxj3-mksXrI5bO-q-32" value="" style="endArrow=open;html=1;endSize=12;startArrow=diamondThin;startSize=14;startFill=0;edgeStyle=orthogonalEdgeStyle;entryX=0.5;entryY=0;entryDx=0;entryDy=0;" parent="1" target="oe-XNxj3-mksXrI5bO-q-31" edge="1">
          <mxGeometry relative="1" as="geometry">
            <mxPoint x="120" y="260" as="sourcePoint" />
            <mxPoint x="170" y="335" as="targetPoint" />
            <Array as="points">
              <mxPoint x="120" y="260" />
              <mxPoint x="120" y="310" />
              <mxPoint x="125" y="310" />
            </Array>
          </mxGeometry>
        </mxCell>
        <mxCell id="oe-XNxj3-mksXrI5bO-q-33" value="*" style="edgeLabel;resizable=0;html=1;align=left;verticalAlign=top;" parent="oe-XNxj3-mksXrI5bO-q-32" connectable="0" vertex="1">
          <mxGeometry x="-1" relative="1" as="geometry">
            <mxPoint x="7" as="offset" />
          </mxGeometry>
        </mxCell>
        <mxCell id="oe-XNxj3-mksXrI5bO-q-34" value="1" style="edgeLabel;resizable=0;html=1;align=right;verticalAlign=top;" parent="oe-XNxj3-mksXrI5bO-q-32" connectable="0" vertex="1">
          <mxGeometry x="1" relative="1" as="geometry">
            <mxPoint x="-20" y="-20" as="offset" />
          </mxGeometry>
        </mxCell>
        <mxCell id="WPxyj9ZvZWyOQ25DMJZI-2" value="Product" style="html=1;" vertex="1" parent="1">
          <mxGeometry x="480" y="220" width="110" height="50" as="geometry" />
        </mxCell>
        <mxCell id="WPxyj9ZvZWyOQ25DMJZI-3" value="" style="endArrow=open;html=1;endSize=12;startArrow=diamondThin;startSize=14;startFill=0;edgeStyle=orthogonalEdgeStyle;exitX=1;exitY=0.5;exitDx=0;exitDy=0;entryX=0;entryY=0.5;entryDx=0;entryDy=0;" edge="1" parent="1" source="oe-XNxj3-mksXrI5bO-q-20" target="WPxyj9ZvZWyOQ25DMJZI-2">
          <mxGeometry relative="1" as="geometry">
            <mxPoint x="420" y="240" as="sourcePoint" />
            <mxPoint x="533" y="250" as="targetPoint" />
            <Array as="points">
              <mxPoint x="460" y="245" />
              <mxPoint x="460" y="245" />
            </Array>
          </mxGeometry>
        </mxCell>
        <mxCell id="WPxyj9ZvZWyOQ25DMJZI-4" value="*" style="edgeLabel;resizable=0;html=1;align=left;verticalAlign=top;" connectable="0" vertex="1" parent="WPxyj9ZvZWyOQ25DMJZI-3">
          <mxGeometry x="-1" relative="1" as="geometry">
            <mxPoint x="7" as="offset" />
          </mxGeometry>
        </mxCell>
        <mxCell id="WPxyj9ZvZWyOQ25DMJZI-5" value="1" style="edgeLabel;resizable=0;html=1;align=right;verticalAlign=top;" connectable="0" vertex="1" parent="WPxyj9ZvZWyOQ25DMJZI-3">
          <mxGeometry x="1" relative="1" as="geometry">
            <mxPoint x="-20" y="-20" as="offset" />
          </mxGeometry>
        </mxCell>
        <mxCell id="WPxyj9ZvZWyOQ25DMJZI-6" value="ProductComponent" style="html=1;" vertex="1" parent="1">
          <mxGeometry x="480" y="90" width="110" height="50" as="geometry" />
        </mxCell>
        <mxCell id="WPxyj9ZvZWyOQ25DMJZI-8" value="" style="endArrow=open;html=1;endSize=12;startArrow=diamondThin;startSize=14;startFill=0;edgeStyle=orthogonalEdgeStyle;entryX=0.5;entryY=1;entryDx=0;entryDy=0;exitX=0.5;exitY=0;exitDx=0;exitDy=0;" edge="1" parent="1" source="WPxyj9ZvZWyOQ25DMJZI-2" target="WPxyj9ZvZWyOQ25DMJZI-6">
          <mxGeometry relative="1" as="geometry">
            <mxPoint x="600" y="190" as="sourcePoint" />
            <mxPoint x="135" y="220" as="targetPoint" />
          </mxGeometry>
        </mxCell>
        <mxCell id="WPxyj9ZvZWyOQ25DMJZI-9" value="1" style="edgeLabel;resizable=0;html=1;align=left;verticalAlign=top;" connectable="0" vertex="1" parent="WPxyj9ZvZWyOQ25DMJZI-8">
          <mxGeometry x="-1" relative="1" as="geometry">
            <mxPoint x="7" y="-20" as="offset" />
          </mxGeometry>
        </mxCell>
        <mxCell id="WPxyj9ZvZWyOQ25DMJZI-10" value="*" style="edgeLabel;resizable=0;html=1;align=right;verticalAlign=top;" connectable="0" vertex="1" parent="WPxyj9ZvZWyOQ25DMJZI-8">
          <mxGeometry x="1" relative="1" as="geometry">
            <mxPoint x="15" as="offset" />
          </mxGeometry>
        </mxCell>
        <mxCell id="WPxyj9ZvZWyOQ25DMJZI-11" value="SpecialUnit" style="html=1;" vertex="1" parent="1">
          <mxGeometry x="610" y="90" width="110" height="50" as="geometry" />
        </mxCell>
        <mxCell id="WPxyj9ZvZWyOQ25DMJZI-12" value="" style="endArrow=open;html=1;endSize=12;startArrow=diamondThin;startSize=14;startFill=0;edgeStyle=orthogonalEdgeStyle;entryX=0.5;entryY=1;entryDx=0;entryDy=0;exitX=1;exitY=0;exitDx=0;exitDy=0;" edge="1" parent="1" source="WPxyj9ZvZWyOQ25DMJZI-2" target="WPxyj9ZvZWyOQ25DMJZI-11">
          <mxGeometry relative="1" as="geometry">
            <mxPoint x="545" y="230" as="sourcePoint" />
            <mxPoint x="545" y="150" as="targetPoint" />
          </mxGeometry>
        </mxCell>
        <mxCell id="WPxyj9ZvZWyOQ25DMJZI-13" value="1" style="edgeLabel;resizable=0;html=1;align=left;verticalAlign=top;" connectable="0" vertex="1" parent="WPxyj9ZvZWyOQ25DMJZI-12">
          <mxGeometry x="-1" relative="1" as="geometry">
            <mxPoint x="7" y="-20" as="offset" />
          </mxGeometry>
        </mxCell>
        <mxCell id="WPxyj9ZvZWyOQ25DMJZI-14" value="*" style="edgeLabel;resizable=0;html=1;align=right;verticalAlign=top;" connectable="0" vertex="1" parent="WPxyj9ZvZWyOQ25DMJZI-12">
          <mxGeometry x="1" relative="1" as="geometry">
            <mxPoint x="15" as="offset" />
          </mxGeometry>
        </mxCell>
        <mxCell id="WPxyj9ZvZWyOQ25DMJZI-15" value="ProductInPlant" style="html=1;" vertex="1" parent="1">
          <mxGeometry x="660" y="220" width="110" height="50" as="geometry" />
        </mxCell>
        <mxCell id="WPxyj9ZvZWyOQ25DMJZI-16" value="" style="endArrow=open;html=1;endSize=12;startArrow=diamondThin;startSize=14;startFill=0;edgeStyle=orthogonalEdgeStyle;entryX=0;entryY=0.5;entryDx=0;entryDy=0;exitX=1;exitY=0.5;exitDx=0;exitDy=0;" edge="1" parent="1" source="WPxyj9ZvZWyOQ25DMJZI-2" target="WPxyj9ZvZWyOQ25DMJZI-15">
          <mxGeometry relative="1" as="geometry">
            <mxPoint x="590" y="245" as="sourcePoint" />
            <mxPoint x="647" y="245" as="targetPoint" />
            <Array as="points">
              <mxPoint x="630" y="245" />
              <mxPoint x="630" y="245" />
            </Array>
          </mxGeometry>
        </mxCell>
        <mxCell id="WPxyj9ZvZWyOQ25DMJZI-17" value="*" style="edgeLabel;resizable=0;html=1;align=left;verticalAlign=top;" connectable="0" vertex="1" parent="WPxyj9ZvZWyOQ25DMJZI-16">
          <mxGeometry x="-1" relative="1" as="geometry">
            <mxPoint x="7" as="offset" />
          </mxGeometry>
        </mxCell>
        <mxCell id="WPxyj9ZvZWyOQ25DMJZI-18" value="1" style="edgeLabel;resizable=0;html=1;align=right;verticalAlign=top;" connectable="0" vertex="1" parent="WPxyj9ZvZWyOQ25DMJZI-16">
          <mxGeometry x="1" relative="1" as="geometry">
            <mxPoint x="-20" y="-20" as="offset" />
          </mxGeometry>
        </mxCell>
        <mxCell id="WPxyj9ZvZWyOQ25DMJZI-20" value="Plant" style="html=1;" vertex="1" parent="1">
          <mxGeometry x="660" y="320" width="110" height="50" as="geometry" />
        </mxCell>
        <mxCell id="WPxyj9ZvZWyOQ25DMJZI-24" value="" style="endArrow=open;html=1;endSize=12;startArrow=diamondThin;startSize=14;startFill=0;edgeStyle=orthogonalEdgeStyle;exitX=0.5;exitY=1;exitDx=0;exitDy=0;entryX=0.5;entryY=0;entryDx=0;entryDy=0;" edge="1" parent="1" source="WPxyj9ZvZWyOQ25DMJZI-15" target="WPxyj9ZvZWyOQ25DMJZI-20">
          <mxGeometry relative="1" as="geometry">
            <mxPoint x="714.5" y="280" as="sourcePoint" />
            <mxPoint x="715" y="320" as="targetPoint" />
            <Array as="points" />
          </mxGeometry>
        </mxCell>
        <mxCell id="WPxyj9ZvZWyOQ25DMJZI-25" value="1" style="edgeLabel;resizable=0;html=1;align=left;verticalAlign=top;" connectable="0" vertex="1" parent="WPxyj9ZvZWyOQ25DMJZI-24">
          <mxGeometry x="-1" relative="1" as="geometry">
            <mxPoint x="7" as="offset" />
          </mxGeometry>
        </mxCell>
        <mxCell id="WPxyj9ZvZWyOQ25DMJZI-26" value="*" style="edgeLabel;resizable=0;html=1;align=right;verticalAlign=top;" connectable="0" vertex="1" parent="WPxyj9ZvZWyOQ25DMJZI-24">
          <mxGeometry x="1" relative="1" as="geometry">
            <mxPoint x="15" y="-20" as="offset" />
          </mxGeometry>
        </mxCell>
        <mxCell id="WPxyj9ZvZWyOQ25DMJZI-39" value="" style="edgeStyle=orthogonalEdgeStyle;rounded=0;orthogonalLoop=1;jettySize=auto;html=1;" edge="1" parent="1" source="WPxyj9ZvZWyOQ25DMJZI-27" target="WPxyj9ZvZWyOQ25DMJZI-38">
          <mxGeometry relative="1" as="geometry" />
        </mxCell>
        <mxCell id="WPxyj9ZvZWyOQ25DMJZI-27" value="Company" style="html=1;" vertex="1" parent="1">
          <mxGeometry x="510" y="400" width="110" height="50" as="geometry" />
        </mxCell>
        <mxCell id="WPxyj9ZvZWyOQ25DMJZI-28" value="" style="endArrow=open;html=1;endSize=12;startArrow=diamondThin;startSize=14;startFill=0;edgeStyle=orthogonalEdgeStyle;exitX=0.75;exitY=0;exitDx=0;exitDy=0;entryX=0;entryY=0.75;entryDx=0;entryDy=0;" edge="1" parent="1" source="WPxyj9ZvZWyOQ25DMJZI-27" target="WPxyj9ZvZWyOQ25DMJZI-20">
          <mxGeometry relative="1" as="geometry">
            <mxPoint x="626.5" y="404.5" as="sourcePoint" />
            <mxPoint x="720" y="405" as="targetPoint" />
            <Array as="points">
              <mxPoint x="593" y="358" />
            </Array>
          </mxGeometry>
        </mxCell>
        <mxCell id="WPxyj9ZvZWyOQ25DMJZI-29" value="1" style="edgeLabel;resizable=0;html=1;align=left;verticalAlign=top;" connectable="0" vertex="1" parent="WPxyj9ZvZWyOQ25DMJZI-28">
          <mxGeometry x="-1" relative="1" as="geometry">
            <mxPoint x="7" y="-20" as="offset" />
          </mxGeometry>
        </mxCell>
        <mxCell id="WPxyj9ZvZWyOQ25DMJZI-30" value="*" style="edgeLabel;resizable=0;html=1;align=right;verticalAlign=top;" connectable="0" vertex="1" parent="WPxyj9ZvZWyOQ25DMJZI-28">
          <mxGeometry x="1" relative="1" as="geometry">
            <mxPoint x="-20" y="-20" as="offset" />
          </mxGeometry>
        </mxCell>
        <mxCell id="WPxyj9ZvZWyOQ25DMJZI-31" value="" style="endArrow=open;html=1;endSize=12;startArrow=diamondThin;startSize=14;startFill=0;edgeStyle=orthogonalEdgeStyle;exitX=1;exitY=0.75;exitDx=0;exitDy=0;entryX=-0.009;entryY=0.14;entryDx=0;entryDy=0;entryPerimeter=0;" edge="1" parent="1" source="oe-XNxj3-mksXrI5bO-q-27" target="WPxyj9ZvZWyOQ25DMJZI-20">
          <mxGeometry relative="1" as="geometry">
            <mxPoint x="430" y="320" as="sourcePoint" />
            <mxPoint x="620" y="328" as="targetPoint" />
            <Array as="points">
              <mxPoint x="560" y="327" />
            </Array>
          </mxGeometry>
        </mxCell>
        <mxCell id="WPxyj9ZvZWyOQ25DMJZI-32" value="1" style="edgeLabel;resizable=0;html=1;align=left;verticalAlign=top;" connectable="0" vertex="1" parent="WPxyj9ZvZWyOQ25DMJZI-31">
          <mxGeometry x="-1" relative="1" as="geometry">
            <mxPoint x="7" as="offset" />
          </mxGeometry>
        </mxCell>
        <mxCell id="WPxyj9ZvZWyOQ25DMJZI-33" value="*" style="edgeLabel;resizable=0;html=1;align=right;verticalAlign=top;" connectable="0" vertex="1" parent="WPxyj9ZvZWyOQ25DMJZI-31">
          <mxGeometry x="1" relative="1" as="geometry">
            <mxPoint x="-20" y="-20" as="offset" />
          </mxGeometry>
        </mxCell>
        <mxCell id="WPxyj9ZvZWyOQ25DMJZI-34" value="Client" style="html=1;" vertex="1" parent="1">
          <mxGeometry x="294" y="400" width="110" height="50" as="geometry" />
        </mxCell>
        <mxCell id="WPxyj9ZvZWyOQ25DMJZI-35" value="" style="endArrow=open;html=1;endSize=12;startArrow=diamondThin;startSize=14;startFill=0;edgeStyle=orthogonalEdgeStyle;exitX=0.5;exitY=1;exitDx=0;exitDy=0;entryX=0.5;entryY=0;entryDx=0;entryDy=0;" edge="1" parent="1" source="oe-XNxj3-mksXrI5bO-q-27" target="WPxyj9ZvZWyOQ25DMJZI-34">
          <mxGeometry relative="1" as="geometry">
            <mxPoint x="348.5" y="350" as="sourcePoint" />
            <mxPoint x="348.5" y="420" as="targetPoint" />
          </mxGeometry>
        </mxCell>
        <mxCell id="WPxyj9ZvZWyOQ25DMJZI-36" value="1" style="edgeLabel;resizable=0;html=1;align=left;verticalAlign=top;" connectable="0" vertex="1" parent="WPxyj9ZvZWyOQ25DMJZI-35">
          <mxGeometry x="-1" relative="1" as="geometry">
            <mxPoint x="7" as="offset" />
          </mxGeometry>
        </mxCell>
        <mxCell id="WPxyj9ZvZWyOQ25DMJZI-37" value="*" style="edgeLabel;resizable=0;html=1;align=right;verticalAlign=top;" connectable="0" vertex="1" parent="WPxyj9ZvZWyOQ25DMJZI-35">
          <mxGeometry x="1" relative="1" as="geometry">
            <mxPoint x="20" y="-20" as="offset" />
          </mxGeometry>
        </mxCell>
        <mxCell id="WPxyj9ZvZWyOQ25DMJZI-38" value="SAPENV" style="html=1;" vertex="1" parent="1">
          <mxGeometry x="510" y="500" width="110" height="50" as="geometry" />
        </mxCell>
        <mxCell id="WPxyj9ZvZWyOQ25DMJZI-40" value="RestricaoCargaDescarga" style="html=1;" vertex="1" parent="1">
          <mxGeometry x="650" y="440" width="170" height="50" as="geometry" />
        </mxCell>
        <mxCell id="WPxyj9ZvZWyOQ25DMJZI-41" value="" style="endArrow=open;html=1;endSize=12;startArrow=diamondThin;startSize=14;startFill=0;edgeStyle=orthogonalEdgeStyle;exitX=0.5;exitY=1;exitDx=0;exitDy=0;entryX=0.25;entryY=0;entryDx=0;entryDy=0;" edge="1" parent="1" source="WPxyj9ZvZWyOQ25DMJZI-20" target="WPxyj9ZvZWyOQ25DMJZI-40">
          <mxGeometry relative="1" as="geometry">
            <mxPoint x="714.5" y="380" as="sourcePoint" />
            <mxPoint x="715" y="430" as="targetPoint" />
            <Array as="points" />
          </mxGeometry>
        </mxCell>
        <mxCell id="WPxyj9ZvZWyOQ25DMJZI-42" value="1" style="edgeLabel;resizable=0;html=1;align=left;verticalAlign=top;" connectable="0" vertex="1" parent="WPxyj9ZvZWyOQ25DMJZI-41">
          <mxGeometry x="-1" relative="1" as="geometry">
            <mxPoint x="7" as="offset" />
          </mxGeometry>
        </mxCell>
        <mxCell id="WPxyj9ZvZWyOQ25DMJZI-43" value="*" style="edgeLabel;resizable=0;html=1;align=right;verticalAlign=top;" connectable="0" vertex="1" parent="WPxyj9ZvZWyOQ25DMJZI-41">
          <mxGeometry x="1" relative="1" as="geometry">
            <mxPoint x="15" y="-20" as="offset" />
          </mxGeometry>
        </mxCell>
        <mxCell id="WPxyj9ZvZWyOQ25DMJZI-44" value="" style="endArrow=none;html=1;edgeStyle=orthogonalEdgeStyle;entryX=1;entryY=0.5;entryDx=0;entryDy=0;exitX=0;exitY=0.5;exitDx=0;exitDy=0;" edge="1" parent="1" source="WPxyj9ZvZWyOQ25DMJZI-47" target="WPxyj9ZvZWyOQ25DMJZI-20">
          <mxGeometry relative="1" as="geometry">
            <mxPoint x="860" y="345" as="sourcePoint" />
            <mxPoint x="850" y="510" as="targetPoint" />
            <Array as="points" />
          </mxGeometry>
        </mxCell>
        <mxCell id="WPxyj9ZvZWyOQ25DMJZI-45" value="parent" style="edgeLabel;resizable=0;html=1;align=left;verticalAlign=bottom;" connectable="0" vertex="1" parent="WPxyj9ZvZWyOQ25DMJZI-44">
          <mxGeometry x="-1" relative="1" as="geometry">
            <mxPoint x="-40" y="-5" as="offset" />
          </mxGeometry>
        </mxCell>
        <mxCell id="WPxyj9ZvZWyOQ25DMJZI-46" value="child" style="edgeLabel;resizable=0;html=1;align=right;verticalAlign=bottom;" connectable="0" vertex="1" parent="WPxyj9ZvZWyOQ25DMJZI-44">
          <mxGeometry x="1" relative="1" as="geometry">
            <mxPoint x="30" as="offset" />
          </mxGeometry>
        </mxCell>
        <mxCell id="WPxyj9ZvZWyOQ25DMJZI-47" value="LocalidadeGeografica" style="html=1;" vertex="1" parent="1">
          <mxGeometry x="880" y="320" width="130" height="50" as="geometry" />
        </mxCell>
        <mxCell id="WPxyj9ZvZWyOQ25DMJZI-48" value="Localidade" style="html=1;" vertex="1" parent="1">
          <mxGeometry x="1111" y="320" width="130" height="50" as="geometry" />
        </mxCell>
        <mxCell id="WPxyj9ZvZWyOQ25DMJZI-49" value="" style="endArrow=none;html=1;edgeStyle=orthogonalEdgeStyle;entryX=1;entryY=0.5;entryDx=0;entryDy=0;exitX=0;exitY=0.5;exitDx=0;exitDy=0;" edge="1" parent="1" source="WPxyj9ZvZWyOQ25DMJZI-48" target="WPxyj9ZvZWyOQ25DMJZI-47">
          <mxGeometry relative="1" as="geometry">
            <mxPoint x="1110" y="400" as="sourcePoint" />
            <mxPoint x="1020" y="344.5" as="targetPoint" />
            <Array as="points" />
          </mxGeometry>
        </mxCell>
        <mxCell id="WPxyj9ZvZWyOQ25DMJZI-50" value="parent" style="edgeLabel;resizable=0;html=1;align=left;verticalAlign=bottom;" connectable="0" vertex="1" parent="WPxyj9ZvZWyOQ25DMJZI-49">
          <mxGeometry x="-1" relative="1" as="geometry">
            <mxPoint x="-40" y="-5" as="offset" />
          </mxGeometry>
        </mxCell>
        <mxCell id="WPxyj9ZvZWyOQ25DMJZI-51" value="child" style="edgeLabel;resizable=0;html=1;align=right;verticalAlign=bottom;" connectable="0" vertex="1" parent="WPxyj9ZvZWyOQ25DMJZI-49">
          <mxGeometry x="1" relative="1" as="geometry">
            <mxPoint x="30" as="offset" />
          </mxGeometry>
        </mxCell>
        <mxCell id="WPxyj9ZvZWyOQ25DMJZI-52" value="Regiao" style="html=1;" vertex="1" parent="1">
          <mxGeometry x="990" y="420" width="130" height="50" as="geometry" />
        </mxCell>
        <mxCell id="WPxyj9ZvZWyOQ25DMJZI-53" value="" style="endArrow=none;html=1;edgeStyle=orthogonalEdgeStyle;entryX=1;entryY=0.5;entryDx=0;entryDy=0;exitX=0.5;exitY=1;exitDx=0;exitDy=0;" edge="1" parent="1" source="WPxyj9ZvZWyOQ25DMJZI-48" target="WPxyj9ZvZWyOQ25DMJZI-52">
          <mxGeometry relative="1" as="geometry">
            <mxPoint x="1251" y="440" as="sourcePoint" />
            <mxPoint x="1150" y="440" as="targetPoint" />
            <Array as="points" />
          </mxGeometry>
        </mxCell>
        <mxCell id="WPxyj9ZvZWyOQ25DMJZI-54" value="parent" style="edgeLabel;resizable=0;html=1;align=left;verticalAlign=bottom;" connectable="0" vertex="1" parent="WPxyj9ZvZWyOQ25DMJZI-53">
          <mxGeometry x="-1" relative="1" as="geometry">
            <mxPoint x="4" y="20" as="offset" />
          </mxGeometry>
        </mxCell>
        <mxCell id="WPxyj9ZvZWyOQ25DMJZI-55" value="child" style="edgeLabel;resizable=0;html=1;align=right;verticalAlign=bottom;" connectable="0" vertex="1" parent="WPxyj9ZvZWyOQ25DMJZI-53">
          <mxGeometry x="1" relative="1" as="geometry">
            <mxPoint x="30" as="offset" />
          </mxGeometry>
        </mxCell>
        <mxCell id="WPxyj9ZvZWyOQ25DMJZI-56" value="" style="endArrow=open;html=1;endSize=12;startArrow=diamondThin;startSize=14;startFill=0;edgeStyle=orthogonalEdgeStyle;exitX=0.385;exitY=1;exitDx=0;exitDy=0;entryX=0;entryY=0.5;entryDx=0;entryDy=0;exitPerimeter=0;" edge="1" parent="1" source="WPxyj9ZvZWyOQ25DMJZI-47" target="WPxyj9ZvZWyOQ25DMJZI-52">
          <mxGeometry relative="1" as="geometry">
            <mxPoint x="930" y="380" as="sourcePoint" />
            <mxPoint x="930" y="430" as="targetPoint" />
            <Array as="points" />
          </mxGeometry>
        </mxCell>
        <mxCell id="WPxyj9ZvZWyOQ25DMJZI-57" value="*" style="edgeLabel;resizable=0;html=1;align=left;verticalAlign=top;" connectable="0" vertex="1" parent="WPxyj9ZvZWyOQ25DMJZI-56">
          <mxGeometry x="-1" relative="1" as="geometry">
            <mxPoint x="7" as="offset" />
          </mxGeometry>
        </mxCell>
        <mxCell id="WPxyj9ZvZWyOQ25DMJZI-58" value="1" style="edgeLabel;resizable=0;html=1;align=right;verticalAlign=top;" connectable="0" vertex="1" parent="WPxyj9ZvZWyOQ25DMJZI-56">
          <mxGeometry x="1" relative="1" as="geometry">
            <mxPoint x="-10.1" y="-25" as="offset" />
          </mxGeometry>
        </mxCell>
      </root>
    </mxGraphModel>
  </diagram>
</mxfile>
